<?xml version="1.0" standalone="no"?>
<!DOCTYPE svg PUBLIC "-//W3C//DTD SVG 20010904//EN"
 "http://www.w3.org/TR/2001/REC-SVG-20010904/DTD/svg10.dtd">
<svg version="1.0" xmlns="http://www.w3.org/2000/svg"
 width="140.000000pt" height="158.000000pt" viewBox="0 0 140.000000 158.000000"
 preserveAspectRatio="xMidYMid meet">

<g transform="translate(0.000000,158.000000) scale(0.100000,-0.100000)"
fill="#000000" stroke="none">
<path d="M503 1204 c-254 -255 -293 -298 -293 -324 0 -26 26 -56 175 -205 149
-149 179 -175 205 -175 26 0 69 39 325 295 256 256 295 299 295 325 0 26 -26
56 -175 205 -157 157 -178 175 -207 174 -29 -1 -65 -33 -325 -295z"/>
<path d="M870 630 l-225 -228 -53 -1 -53 -1 -89 90 -90 91 -45 -45 c-25 -25
-45 -52 -45 -60 0 -8 -6 -17 -12 -20 -10 -5 -10 -7 0 -12 6 -3 12 -17 12 -30
0 -18 38 -62 145 -169 l145 -145 50 0 50 0 275 275 c151 151 275 282 275 290
0 8 5 15 10 15 6 0 10 11 10 25 0 18 -19 45 -65 90 -35 36 -66 65 -67 64 -2 0
-104 -103 -228 -229z"/>
</g>
</svg>
